<svg width="956" height="322" viewBox="0 0 956 322" fill="none" xmlns="http://www.w3.org/2000/svg">
<path d="M319.435 92.1633C316.773 87.51 311.078 81.9732 299.02 81.9732C287.944 81.9732 271.123 86.6952 249.019 96.0213C235.085 85.5368 218.491 80 201.002 80C156.628 80 120.532 116.333 120.532 161C120.532 164.083 120.708 167.244 121.062 170.385C116.81 173.654 112.833 176.845 109.239 179.878C101.413 186.485 91.6723 195.212 85.7218 204.205C79.3686 213.796 78.2982 222.425 82.5501 229.837C85.221 234.49 90.9359 240.027 102.965 240.027C114.041 240.027 130.862 235.305 152.965 225.979C166.909 236.463 183.504 242 201.002 242C245.366 242 281.463 205.667 281.463 161C281.463 157.908 281.286 154.766 280.932 151.635C284.968 148.532 288.768 145.489 292.244 142.564L292.775 142.122C292.942 141.975 293.118 141.837 293.285 141.69H293.305C301.033 135.122 310.469 126.582 316.282 117.795C322.636 108.194 323.696 99.5751 319.454 92.1633H319.435ZM137.902 177.885C151.08 168.215 166.585 157.976 182.777 148.258L210.871 197.254L216.605 193.965C217.116 193.681 217.636 193.376 218.137 193.082L219.08 192.532C220.955 191.442 222.821 190.343 224.667 189.253L226.12 188.399C240.054 180.094 253.261 171.573 265.378 163.062C264.298 197.824 235.694 225.871 200.992 225.871C189.435 225.871 178.103 222.749 168.215 216.839C163.963 214.287 160.006 211.263 156.471 207.847L155.803 207.199L154.949 207.582C150.412 209.604 146.003 211.489 141.83 213.167C129.084 218.292 118.155 221.738 110.202 223.151C106.225 223.858 102.994 224.064 100.598 223.76C98.4478 223.485 97.0436 222.818 96.4544 221.787C95.8554 220.746 95.9831 219.195 96.8276 217.173C97.7604 214.935 99.5574 212.215 102.16 209.103C107.354 202.889 115.789 195.085 126.571 186.544C129.978 183.825 133.788 180.919 137.902 177.895V177.885ZM264.092 144.134C251.032 153.726 235.557 163.945 219.276 173.713L191.183 124.726L188.846 126.061C187.314 126.935 185.831 127.789 184.358 128.643L182.915 129.478C180.568 130.832 178.231 132.207 175.943 133.581C161.793 142.034 148.576 150.574 136.616 158.968C137.696 124.196 166.3 96.1391 201.012 96.1391C212.56 96.1391 223.891 99.2609 233.779 105.181C237.972 107.674 241.93 110.698 245.543 114.173L246.211 114.821L247.055 114.438C251.562 112.426 255.971 110.55 260.164 108.852C272.91 103.728 283.839 100.282 291.793 98.8683C295.77 98.1614 299.01 97.9553 301.396 98.2596C303.547 98.5345 304.951 99.202 305.54 100.233C306.139 101.273 306.011 102.825 305.167 104.847C304.234 107.085 302.437 109.804 299.835 112.916C294.64 119.14 286.206 126.945 275.424 135.495C271.791 138.382 267.971 141.297 264.092 144.144V144.134Z" fill="black"/>
<path d="M359.56 127.05H375.828L423.136 184.178V127.05H439.284V208.002H423.136L375.828 150.873V208.002H359.56V127.05Z" fill="black"/>
<path d="M458.677 154.227C463.597 149.296 471.482 146.821 482.331 146.821C493.179 146.821 501.064 149.286 505.984 154.227C510.905 159.157 513.37 167.062 513.37 177.931C513.37 188.799 510.905 196.824 505.984 201.754C501.064 206.615 493.179 209.04 482.331 209.04C471.482 209.04 463.597 206.615 458.677 201.754C453.826 196.824 451.411 188.879 451.411 177.931C451.411 166.982 453.836 159.157 458.677 154.227ZM466.531 177.931C466.531 183.789 467.759 188.071 470.224 190.765C472.759 193.46 476.801 194.818 482.34 194.818C487.88 194.818 491.882 193.47 494.337 190.765C496.872 188.071 498.15 183.789 498.15 177.931C498.15 172.072 496.882 167.71 494.337 165.096C491.872 162.401 487.88 161.043 482.34 161.043C476.801 161.043 472.769 162.391 470.224 165.096C467.759 167.72 466.531 171.992 466.531 177.931Z" fill="black"/>
<path d="M517.941 147.869H534.089L550.238 190.546L566.386 147.869H582.655L558.891 208.012H541.705L517.941 147.869Z" fill="black"/>
<path d="M608.444 209.05C600.68 209.05 594.951 207.583 591.258 204.658C587.645 201.654 585.839 196.874 585.839 190.316C585.839 183.759 587.835 178.829 591.837 175.974C595.839 173.04 602.296 171.583 611.219 171.583H629.214C628.904 167.501 627.637 164.567 625.411 162.79C623.255 160.944 619.872 160.015 615.261 160.015C607.806 160.015 603.414 162.68 602.107 168H587.106C588.024 160.594 590.759 155.235 595.3 151.921C599.841 148.528 606.688 146.831 615.84 146.831C625.84 146.831 633.106 148.917 637.647 153.079C642.189 157.161 644.454 163.798 644.454 172.97V208.012H629.224V202.343C624.842 206.814 617.916 209.05 608.454 209.05H608.444ZM601.059 189.618C601.059 193.78 604.792 195.866 612.247 195.866C617.477 195.866 621.399 194.937 624.014 193.091C626.709 191.165 628.435 188.2 629.204 184.188V182.801H615.241C605.78 182.801 601.049 185.077 601.049 189.628L601.059 189.618Z" fill="black"/>
<path d="M655.123 188.809H670.124C671.581 193.51 676.472 195.866 684.775 195.866C693.079 195.866 696.772 194.249 696.772 191.005C696.772 188.081 691.732 185.915 681.662 184.528C672.28 183.45 665.623 181.444 661.7 178.509C657.778 175.505 655.812 171.034 655.812 165.096C655.812 158.848 657.888 154.267 662.04 151.332C666.192 148.328 672.769 146.821 681.771 146.821C690.774 146.821 698 148.438 702.541 151.682C707.152 154.846 709.886 159.966 710.735 167.062H695.734C694.886 164.597 693.349 162.82 691.123 161.742C688.967 160.584 685.774 160.005 681.552 160.005C674.246 160.005 670.593 161.513 670.593 164.517C670.593 167.291 675.204 169.297 684.436 170.535C694.586 172.002 701.623 174.118 705.545 176.893C709.467 179.587 711.433 183.869 711.433 189.728C711.433 196.205 709.238 201.065 704.856 204.299C700.545 207.463 693.698 209.04 684.316 209.04C674.935 209.04 668.128 207.423 663.437 204.179C658.746 200.946 655.972 195.816 655.133 188.799L655.123 188.809Z" fill="black"/>
<path d="M741.605 147.869H757.983V162.091H741.605V185.226C741.605 188.23 742.293 190.426 743.681 191.823C745.068 193.131 747.373 193.79 750.607 193.79H759.031V208.012H750.148C741.844 208.012 735.806 206.355 732.033 203.042C728.261 199.728 726.384 194.408 726.384 187.083V162.101H717.611V147.879H726.384V134.815H741.615V147.879L741.605 147.869Z" fill="black"/>
<path d="M769.201 208.002V147.859H784.431V153.299C788.274 148.977 794.202 146.821 802.196 146.821H807.965V161.043H797.585C792.894 161.043 789.511 162.351 787.435 164.976C785.439 167.601 784.431 171.912 784.431 177.931V208.002H769.201Z" fill="black"/>
<path d="M820.69 154.227C825.611 149.296 833.495 146.821 844.344 146.821C855.193 146.821 863.078 149.286 867.998 154.227C872.918 159.157 875.384 167.062 875.384 177.931C875.384 188.799 872.918 196.824 867.998 201.754C863.078 206.615 855.193 209.04 844.344 209.04C833.495 209.04 825.611 206.615 820.69 201.754C815.85 196.824 813.424 188.879 813.424 177.931C813.424 166.982 815.85 159.157 820.69 154.227ZM828.535 177.931C828.535 183.789 829.763 188.071 832.228 190.765C834.763 193.46 838.805 194.818 844.344 194.818C849.883 194.818 853.885 193.47 856.341 190.765C858.876 188.071 860.153 183.789 860.153 177.931C860.153 172.072 858.886 167.71 856.341 165.096C853.875 162.401 849.883 161.043 844.344 161.043C838.805 161.043 834.773 162.391 832.228 165.096C829.763 167.72 828.535 171.992 828.535 177.931Z" fill="black"/>
</svg>
