<svg width="256" height="256" viewBox="0 0 256 256" fill="none" xmlns="http://www.w3.org/2000/svg">
<rect width="256" height="256" rx="128" fill="#151B2E"/>
<path d="M221.183 73.6105C219.08 69.9338 214.58 65.5591 205.053 65.5591C196.301 65.5591 183.011 69.29 165.546 76.6588C154.537 68.3747 141.425 64 127.607 64C92.5456 64 64.0251 92.7073 64.0251 128C64.0251 130.436 64.1647 132.933 64.444 135.415C61.0846 137.998 57.9423 140.519 55.1027 142.916C48.9191 148.136 41.2226 155.032 36.5209 162.137C31.5011 169.715 30.6554 176.533 34.0149 182.39C36.1252 186.066 40.6407 190.441 50.145 190.441C58.8966 190.441 72.1871 186.71 89.6516 179.341C100.669 187.625 113.781 192 127.607 192C162.66 192 191.18 163.293 191.18 128C191.18 125.557 191.041 123.075 190.761 120.6C193.95 118.149 196.953 115.745 199.699 113.433L200.118 113.084C200.25 112.968 200.39 112.859 200.522 112.743H200.537C206.643 107.554 214.099 100.805 218.692 93.863C223.712 86.2771 224.55 79.4667 221.198 73.6105H221.183ZM77.75 141.341C88.162 133.701 100.413 125.611 113.207 117.932L135.404 156.645L139.935 154.047C140.338 153.822 140.75 153.581 141.145 153.349L141.89 152.914C143.372 152.053 144.846 151.185 146.305 150.324L147.453 149.649C158.462 143.087 168.898 136.354 178.472 129.629C177.618 157.095 155.018 179.256 127.599 179.256C118.467 179.256 109.514 176.789 101.701 172.12C98.3413 170.103 95.2145 167.714 92.4215 165.015L91.8939 164.503L91.2189 164.805C87.6344 166.403 84.1508 167.892 80.8534 169.219C70.7828 173.268 62.1475 175.99 55.863 177.107C52.7208 177.666 50.1682 177.829 48.2751 177.588C46.576 177.371 45.4665 176.844 45.001 176.029C44.5277 175.207 44.6286 173.981 45.2958 172.383C46.0329 170.615 47.4527 168.466 49.5088 166.008C53.613 161.098 60.2777 154.931 68.7966 148.183C71.4888 146.034 74.4991 143.738 77.75 141.349V141.341ZM177.455 114.674C167.137 122.252 154.909 130.327 142.045 138.045L119.848 99.3392L118.001 100.394C116.791 101.084 115.62 101.759 114.456 102.434L113.315 103.093C111.461 104.164 109.614 105.25 107.807 106.336C96.6266 113.014 86.1836 119.762 76.7336 126.394C77.5871 98.9204 100.188 76.7519 127.614 76.7519C136.738 76.7519 145.692 79.2185 153.505 83.8958C156.818 85.866 159.944 88.255 162.8 91.0008L163.327 91.5128L163.994 91.2103C167.556 89.6202 171.039 88.1386 174.352 86.7968C184.423 82.7478 193.058 80.0252 199.342 78.9083C202.485 78.3498 205.045 78.1869 206.93 78.4273C208.629 78.6445 209.739 79.172 210.204 79.9864C210.678 80.8086 210.577 82.0342 209.91 83.632C209.173 85.4006 207.753 87.5491 205.697 90.008C201.592 94.9257 194.928 101.092 186.409 107.848C183.538 110.129 180.52 112.432 177.455 114.682V114.674Z" fill="url(#paint0_linear_1491_601)"/>
<defs>
<linearGradient id="paint0_linear_1491_601" x1="92.25" y1="73.5" x2="154.25" y2="184.25" gradientUnits="userSpaceOnUse">
<stop stop-color="#20F2D8"/>
<stop offset="1" stop-color="#36DAF0"/>
</linearGradient>
</defs>
</svg>
