<svg width="512" height="512" viewBox="0 0 512 512" fill="none" xmlns="http://www.w3.org/2000/svg">
<rect width="512" height="512" rx="256" fill="#151B2E"/>
<path d="M443.366 147.221C439.161 139.868 430.161 131.118 411.105 131.118C393.602 131.118 367.021 138.58 332.092 153.318C310.073 136.749 283.849 128 256.213 128C186.091 128 129.05 185.415 129.05 256C129.05 260.871 129.329 265.866 129.888 270.831C123.169 275.997 116.885 281.038 111.205 285.832C98.8382 296.272 83.4452 310.064 74.0418 324.274C64.0022 339.43 62.3108 353.067 69.0297 364.779C73.2504 372.132 82.2814 380.882 101.29 380.882C118.793 380.882 145.374 373.42 180.303 358.682C202.338 375.251 228.562 384 256.213 384C326.32 384 383.361 326.585 383.361 256C383.361 251.113 383.082 246.149 382.523 241.2C388.9 236.298 394.906 231.489 400.399 226.866L401.237 226.168C401.5 225.935 401.78 225.718 402.043 225.485H402.075C414.287 215.107 429.198 201.61 438.385 187.726C448.424 172.554 450.1 158.933 443.397 147.221H443.366ZM156.5 282.683C177.324 267.402 201.826 251.222 227.413 235.864L271.808 313.291L280.87 308.094C281.677 307.644 282.499 307.163 283.291 306.697L284.78 305.829C287.744 304.107 290.692 302.369 293.61 300.647L295.906 299.298C317.925 286.173 338.796 272.708 357.944 259.258C356.237 314.19 311.035 358.512 256.198 358.512C237.934 358.512 220.027 353.578 204.401 344.239C197.683 340.206 191.429 335.428 185.843 330.029L184.788 329.005L183.438 329.61C176.269 332.806 169.302 335.785 162.707 338.438C142.566 346.535 125.295 351.981 112.726 354.215C106.442 355.331 101.336 355.657 97.5503 355.176C94.152 354.742 91.9331 353.687 91.002 352.058C90.0555 350.414 90.2572 347.963 91.5917 344.767C93.0658 341.23 95.9055 336.933 100.018 332.015C108.226 322.195 121.555 309.862 138.593 296.366C143.978 292.068 149.998 287.476 156.5 282.698V282.683ZM355.911 229.348C335.273 244.505 310.818 260.654 285.091 276.09L240.696 198.678L237.003 200.788C234.582 202.169 232.239 203.519 229.912 204.868L227.631 206.187C223.922 208.328 220.229 210.5 216.613 212.671C194.253 226.028 173.367 239.525 154.467 252.789C156.174 197.841 201.376 153.504 256.229 153.504C274.477 153.504 292.384 158.437 308.01 167.792C314.635 171.732 320.889 176.51 326.599 182.002L327.654 183.026L328.989 182.421C336.111 179.24 343.078 176.277 349.704 173.594C369.845 165.496 387.116 160.05 399.685 157.817C405.969 156.7 411.09 156.374 414.861 156.855C418.259 157.289 420.478 158.344 421.409 159.973C422.355 161.617 422.154 164.068 420.819 167.264C419.345 170.801 416.505 175.098 412.393 180.016C404.185 189.851 390.856 202.184 373.818 215.697C368.076 220.257 362.04 224.865 355.911 229.364V229.348Z" fill="url(#paint0_linear_1491_617)"/>
<defs>
<linearGradient id="paint0_linear_1491_617" x1="185.5" y1="147" x2="309.5" y2="368.5" gradientUnits="userSpaceOnUse">
<stop stop-color="#20F2D8"/>
<stop offset="1" stop-color="#36DAF0"/>
</linearGradient>
</defs>
</svg>
