<svg width="200" height="200" viewBox="0 0 200 200" fill="none" xmlns="http://www.w3.org/2000/svg">
<rect width="200" height="200" fill="black"/>
<path d="M172.799 57.5082C171.156 54.6358 167.641 51.218 160.197 51.218C153.36 51.218 142.977 54.1328 129.333 59.8897C120.732 53.4178 110.488 50 99.6927 50C72.3012 50 50.0196 72.4276 50.0196 100C50.0196 101.903 50.1287 103.854 50.3469 105.793C47.7223 107.811 45.2674 109.781 43.049 111.653C38.218 115.731 32.2051 121.119 28.5319 126.669C24.6102 132.59 23.9495 137.917 26.5741 142.492C28.2228 145.364 31.7505 148.782 39.1757 148.782C46.013 148.782 56.3962 145.867 70.0403 140.11C78.6475 146.582 88.8913 150 99.6927 150C127.078 150 149.36 127.572 149.36 100C149.36 98.0911 149.251 96.152 149.032 94.2189C151.524 92.304 153.869 90.4254 156.015 88.6196L156.342 88.3469C156.445 88.256 156.555 88.1711 156.658 88.0802H156.67C161.44 84.0262 167.265 78.7541 170.853 73.3305C174.775 67.4039 175.43 62.0834 172.811 57.5082H172.799ZM60.7422 110.423C68.8766 104.454 78.4475 98.1336 88.4427 92.1343L105.784 122.379L109.324 120.349C109.639 120.173 109.961 119.985 110.27 119.804L110.852 119.464C112.009 118.792 113.161 118.113 114.301 117.44L115.198 116.913C123.799 111.786 131.951 106.526 139.431 101.273C138.764 122.731 121.108 140.044 99.6866 140.044C92.5523 140.044 85.5575 138.117 79.4537 134.469C76.8291 132.893 74.3864 131.027 72.2043 128.918L71.7921 128.518L71.2647 128.754C68.4644 130.002 65.7428 131.166 63.1667 132.202C55.299 135.365 48.5527 137.492 43.643 138.365C41.1881 138.801 39.1939 138.929 37.715 138.741C36.3875 138.571 35.5207 138.159 35.157 137.523C34.7873 136.88 34.8661 135.923 35.3874 134.675C35.9632 133.293 37.0724 131.614 38.6787 129.693C41.8852 125.857 47.0919 121.04 53.7473 115.768C55.8506 114.089 58.2024 112.295 60.7422 110.429V110.423ZM138.637 89.5891C130.575 95.5096 121.023 101.818 110.973 107.848L93.6313 77.6088L92.1887 78.4329C91.2431 78.9722 90.3278 79.4995 89.4186 80.0267L88.5276 80.5418C87.0789 81.378 85.6363 82.2264 84.224 83.0748C75.4895 88.2923 67.3309 93.5644 59.9481 98.7456C60.6149 77.2815 78.2717 59.9624 99.6987 59.9624C106.827 59.9624 113.822 61.8895 119.926 65.5436C122.514 67.0828 124.957 68.9492 127.187 71.0944L127.599 71.4944L128.121 71.258C130.903 70.0158 133.624 68.8583 136.213 67.81C144.08 64.6467 150.827 62.5197 155.736 61.6471C158.191 61.2108 160.191 61.0835 161.664 61.2714C162.992 61.441 163.859 61.8531 164.222 62.4894C164.592 63.1317 164.513 64.0892 163.992 65.3375C163.416 66.7192 162.307 68.3978 160.701 70.3187C157.494 74.1607 152.287 78.9783 145.632 84.2565C143.389 86.0381 141.031 87.8378 138.637 89.5952V89.5891Z" fill="white"/>
</svg>
