<svg width="96" height="96" viewBox="0 0 96 96" fill="none" xmlns="http://www.w3.org/2000/svg">
<rect width="96" height="96" fill="black"/>
<path d="M82.9436 27.6039C82.1551 26.2252 80.4676 24.5847 76.8948 24.5847C73.6129 24.5847 68.629 25.9838 62.0798 28.7471C57.9512 25.6405 53.0342 24 47.8525 24C34.7046 24 24.0094 34.7652 24.0094 48C24.0094 48.9133 24.0618 49.85 24.1665 50.7808C22.9067 51.7494 21.7284 52.6947 20.6635 53.5935C18.3447 55.5511 15.4585 58.137 13.6953 60.8014C11.8129 63.6432 11.4958 66.2 12.7556 68.3961C13.547 69.7748 15.2403 71.4153 18.8044 71.4153C22.0862 71.4153 27.0702 70.0162 33.6194 67.2529C37.7508 70.3595 42.6678 72 47.8525 72C60.9974 72 71.6926 61.2348 71.6926 48C71.6926 47.0837 71.6403 46.153 71.5355 45.2251C72.7313 44.3059 73.8573 43.4042 74.8872 42.5374L75.0443 42.4065C75.0938 42.3629 75.1462 42.3221 75.1956 42.2785H75.2015C77.4912 40.3326 80.2872 37.802 82.0096 35.1986C83.892 32.3539 84.2063 29.8 82.9494 27.6039H82.9436ZM29.1562 53.003C33.0607 50.1379 37.6548 47.1041 42.4525 44.2245L50.7765 58.742L52.4756 57.7675C52.6269 57.6832 52.7811 57.593 52.9295 57.5058L53.2088 57.3429C53.7645 57.02 54.3173 56.6942 54.8643 56.3713L55.2949 56.1183C59.4234 53.6575 63.3367 51.1327 66.9269 48.6108C66.6069 58.9107 58.1316 67.2209 47.8496 67.2209C44.4251 67.2209 41.0676 66.296 38.1378 64.5449C36.878 63.7886 35.7055 62.8927 34.658 61.8805L34.4602 61.6885L34.2071 61.802C32.8629 62.4012 31.5566 62.9596 30.32 63.457C26.5435 64.9754 23.3053 65.9964 20.9486 66.4152C19.7703 66.6247 18.8131 66.6857 18.1032 66.5956C17.466 66.5141 17.05 66.3163 16.8754 66.0109C16.6979 65.7026 16.7357 65.243 16.9859 64.6438C17.2623 63.9806 17.7948 63.1749 18.5658 62.2528C20.1049 60.4116 22.6041 58.0991 25.7987 55.5685C26.8083 54.7628 27.9372 53.9018 29.1562 53.0059V53.003ZM66.5458 43.0028C62.6762 45.8446 58.0909 48.8726 53.267 51.7668L44.943 37.2522L44.2506 37.6478C43.7967 37.9067 43.3573 38.1597 42.9209 38.4128L42.4932 38.66C41.7979 39.0614 41.1054 39.4687 40.4275 39.8759C36.235 42.3803 32.3188 44.9109 28.7751 47.3979C29.0951 37.0951 37.5704 28.782 47.8554 28.782C51.2769 28.782 54.6344 29.7069 57.5643 31.4609C58.8066 32.1997 59.9791 33.0956 61.0498 34.1253L61.2477 34.3173L61.4979 34.2039C62.8333 33.6076 64.1397 33.052 65.382 32.5488C69.1585 31.0304 72.3967 30.0095 74.7534 29.5906C75.9317 29.3812 76.8919 29.3201 77.5989 29.4103C78.236 29.4917 78.6521 29.6895 78.8267 29.9949C79.0041 30.3032 78.9663 30.7628 78.7161 31.362C78.4397 32.0252 77.9073 32.8309 77.1363 33.753C75.5972 35.5971 73.0979 37.9096 69.9033 40.4431C68.8268 41.2983 67.695 42.1622 66.5458 43.0057V43.0028Z" fill="white"/>
</svg>
